<svg width="1484" height="828" viewBox="0 0 1484 828" fill="none" xmlns="http://www.w3.org/2000/svg">
	<path fill="none" d="M945.211 242.727C945.211 350.808 859.452 438.426 753.659 438.426C647.87 438.426 562.108 350.808 562.108 242.727C562.108 134.643 647.87 	47.0249 753.659 47.0249C859.452 47.0249 945.211 134.643 945.211 242.727Z" stroke="black" stroke-width="65" stroke-miterlimit="10"/>
	<path fill="none" d="M468.606 788.378C435.971 788.378 410.823 758.318 416.649 725.51C445.637 562.246 585.496 438.435 753.668 438.435C921.839 438.435 1061.69 	562.246 1090.69 725.51C1096.51 758.318 1071.36 788.378 1038.73 788.378H468.606Z" stroke="black" stroke-width="65" stroke-miterlimit="10"/>
	<path fill="none" d="M1353.55 215.537C1353.55 299.204 1287.17 367.031 1205.27 367.031C1123.38 367.031 1056.99 299.204 1056.99 215.537C1056.99 131.872 1123.38 	64.0453 1205.27 64.0453C1287.17 64.0453 1353.55 131.872 1353.55 215.537Z" stroke="black" stroke-width="65" stroke-miterlimit="10"/>
	<path fill="none" d="M968.521 515.825C1012.22 427.544 1101.83 367.015 1205.28 367.015C1335.46 367.015 1443.72 462.856 1466.15 589.244C1470.66 614.639 1451.2 	637.909 1425.93 637.909H1062.99" stroke="black" stroke-width="65" stroke-miterlimit="10"/>
	<path fill="none" d="M154.475 216.011C154.475 299.678 220.861 367.505 302.756 367.505C384.65 367.505 451.037 299.678 451.037 216.011C451.037 132.346 384.65 	64.5195 302.756 64.5195C220.861 64.5195 154.475 132.346 154.475 216.011Z" stroke="black" stroke-width="65" stroke-miterlimit="10"/>
	<path fill="none" d="M539.509 516.299C495.812 428.018 406.198 367.489 302.75 367.489C172.574 367.489 64.3117 463.33 41.8743 589.718C37.365 615.113 56.8325 	638.383 82.0959 638.383L445.041 638.383" stroke="black" stroke-width="65" stroke-miterlimit="10"/>
	<defs>
	<clipPath id="clip0_101_2">
	<rect width="1484" height="828" fill="#fff"/>
	</clipPath>
	</defs>
</svg>
