<svg enable-background="new 0 0 32 32" height="512" viewBox="0 0 32 32" width="512" xmlns="http://www.w3.org/2000/svg"><g id="_x30_1"><path d="m26.67 10.87-1.63 15.87c-.2 1.86-1.75 3.26-3.62 3.26h-10.84c-1.87 0-3.42-1.4-3.61-3.26l-1.64-15.87c-.06-.55.34-1.04.89-1.1.56-.06 1.04.34 1.1.89l1.63 15.87c.09.84.79 1.47 1.63 1.47h10.85c.84 0 1.53-.63 1.62-1.46l1.63-15.87c.06-.55.54-.95 1.1-.89.54.05.94.54.89 1.09zm1.11-3.59c0 .55-.45 1-1 1h-5.87-9.83-5.86c-.55 0-1-.45-1-1s.45-1 1-1h4.87v-2.28c0-1.1.9-2 2-2h7.83c1.1 0 2 .9 2 2v2.28h4.87c.54 0 .99.45.99 1zm-7.86-1v-2.28h-7.83v2.28z"/></g></svg>