<svg width="512" height="512" viewBox="0 0 512 512" fill="none" xmlns="http://www.w3.org/2000/svg">
<g clip-path="url(#clip0_187_105)">
<rect x="420.112" y="66" width="36.1025" height="499.376" rx="18.0512" transform="rotate(45 420.112 66)"/>
<path fill-rule="evenodd" clip-rule="evenodd" d="M358.989 118.48C327.706 103.172 292.914 92.835 255.997 92.835C116.806 92.835 7.818 239.784 3.249 246.035C-1.083 251.971 -1.083 260.022 3.249 265.958C6.0097 269.739 46.8925 324.884 109.526 367.943L134.001 343.468C88.0379 312.972 53.2316 274.002 38.38 255.988C64.633 224.075 153.248 126.593 255.997 126.593C283.079 126.593 309.202 133.397 333.469 143.999L358.989 118.48ZM178.463 367.972C202.748 378.59 228.893 385.406 255.997 385.406C358.746 385.406 447.361 287.923 473.614 256.011C458.751 237.981 423.925 198.992 377.941 168.495L402.415 144.021C465.076 187.084 505.98 242.259 508.745 246.041C513.083 251.971 513.083 260.028 508.745 265.963C504.171 272.214 395.188 419.164 255.997 419.164C219.057 419.164 184.244 408.814 152.945 393.49L178.463 367.972Z"/>
<path fill-rule="evenodd" clip-rule="evenodd" d="M308.637 169.509C293.288 160.132 275.262 154.725 255.997 154.725C200.155 154.725 154.722 200.158 154.722 256C154.722 275.265 160.129 293.291 169.506 308.64L194.433 283.712C190.61 275.253 188.481 265.87 188.481 256C188.481 218.771 218.768 188.484 255.997 188.484C265.868 188.484 275.25 190.613 283.709 194.436L308.637 169.509ZM227.81 317.347C236.392 321.306 245.941 323.516 255.997 323.516C293.227 323.516 323.513 293.229 323.513 256C323.513 245.944 321.303 236.395 317.344 227.813L342.225 202.932C351.764 218.373 357.272 236.556 357.272 256C357.272 311.842 311.839 357.275 255.997 357.275C236.553 357.275 218.371 351.766 202.929 342.228L227.81 317.347Z"/>
</g>
<defs>
<clipPath id="clip0_187_105">
<rect width="511.999" height="511.999" fill="#fff"/>
</clipPath>
</defs>
</svg>
