<?xml version="1.0" encoding="UTF-8"?>
<svg version="1.1" viewBox="0 0 682.67 682.67" xml:space="preserve" xmlns="http://www.w3.org/2000/svg"><defs><clipPath id="a"><path d="m0 512h512v-512h-512z"/></clipPath></defs><g transform="matrix(1.3333 0 0 -1.3333 0 682.67)"><g clip-path="url(#a)"><g transform="translate(497 55.167)"><path d="m0 0c0-22.092-18.076-40.167-40.168-40.167h-401.67c-22.092 0-40.166 18.075-40.166 40.167v401.67c0 22.092 18.074 40.167 40.166 40.167h401.67c22.092 0 40.168-18.075 40.168-40.167z" fill="none" stroke="#000" stroke-linecap="round" stroke-linejoin="round" stroke-miterlimit="10" stroke-width="23"/></g><g transform="translate(143.53 432.73)"><path d="m0 0h224.93" fill="none" stroke="#000" stroke-linecap="round" stroke-linejoin="round" stroke-miterlimit="10" stroke-width="23"/></g><g transform="translate(15 368.47)"><path d="m0 0h482" fill="none" stroke="#000" stroke-linecap="round" stroke-linejoin="round" stroke-miterlimit="10" stroke-width="23"/></g><path d="m143.53 223.87h-64.267v64.268h64.267z" fill="none" stroke="#000" stroke-linecap="round" stroke-linejoin="round" stroke-miterlimit="10" stroke-width="23"/><g transform="translate(207.8 223.87)"><path d="m0 0h224.93" fill="none" stroke="#000" stroke-linecap="round" stroke-linejoin="round" stroke-miterlimit="10" stroke-width="23"/></g><g transform="translate(79.267 159.6)"><path d="m0 0h353.47" fill="none" stroke="#000" stroke-linecap="round" stroke-linejoin="round" stroke-miterlimit="10" stroke-width="23"/></g><g transform="translate(79.267 95.333)"><path d="m0 0h353.47" fill="none" stroke-linecap="round" stroke-linejoin="round" stroke-miterlimit="10" stroke-width="23"/></g><g transform="translate(207.8 288.13)"><path d="m0 0h224.93" fill="none" stroke="#000" stroke-linecap="round" stroke-linejoin="round" stroke-miterlimit="10" stroke-width="23"/></g></g></g></svg>
