<svg viewBox="0 0 683 494" fill="none" xmlns="http://www.w3.org/2000/svg">
<g clip-path="url(#clip0_120_9)">
<mask id="mask0_120_9" style="mask-type:luminance" maskUnits="userSpaceOnUse" x="0" y="-93" width="683" height="683">
<path d="M0 -92.9797H682.65V589.67H0V-92.9797Z" fill="#fff"/>
</mask>
<g mask="url(#mask0_120_9)">
<path fill="none" d="M343.805 141.014C343.805 207.105 291.366 260.682 226.677 260.682C161.991 260.682 109.551 207.105 109.551 141.014C109.551 74.9228 161.991 21.3455 226.677 21.3455C291.366 21.3455 343.805 74.9228 343.805 141.014Z" stroke="black" stroke-width="35.9991" stroke-miterlimit="10"/>
<path fill="none" d="M52.3774 474.673C32.4219 474.673 17.0449 456.292 20.6075 436.23C38.3324 336.396 123.852 260.688 226.682 260.688C329.513 260.688 415.024 336.396 432.757 436.23C436.318 456.292 420.943 474.673 400.986 474.673H52.3774Z" stroke="black" stroke-width="35.9991" stroke-miterlimit="10"/>
<path fill="none" d="M593.492 124.388C593.492 175.55 552.9 217.025 502.823 217.025C452.749 217.025 412.155 175.55 412.155 124.388C412.155 73.2283 452.749 31.7533 502.823 31.7533C552.9 31.7533 593.492 73.2283 593.492 124.388Z" stroke="black" stroke-width="35.9991" stroke-miterlimit="10"/>
<path fill="none" d="M358.058 308.01C384.777 254.028 439.573 217.015 502.827 217.015C582.425 217.015 648.624 275.62 662.343 352.905C665.101 368.434 653.197 382.663 637.749 382.663H415.822" stroke="black" stroke-width="35.9991" stroke-miterlimit="10"/>
</g>
</g>
<defs>
<clipPath id="clip0_120_9">
<rect width="683" height="494" fill="#fff"/>
</clipPath>
</defs>
</svg>
