<?xml version="1.0" encoding="UTF-8" standalone="no"?>
<!-- Created with Inkscape (http://www.inkscape.org/) -->

<svg
        version="1.1"
        id="svg1818"
        xml:space="preserve"
        width="682.66669"
        height="682.66669"
        viewBox="0 0 682.66669 682.66669"
        xmlns="http://www.w3.org/2000/svg"
><defs
     id="defs1822"><clipPath
       clipPathUnits="userSpaceOnUse"
       id="clipPath1832"><path
         d="M 0,512 H 512 V 0 H 0 Z"
         id="path1830" /></clipPath></defs><g
     id="g1824"
     transform="matrix(1.3333333,0,0,-1.3333333,0,682.66667)"><g
       id="g1826"><g
         id="g1828"
         clip-path="url(#clipPath1832)"><g
           id="g1834"
           transform="translate(345.0005,202.4326)"><path
             d="m 0,0 c 15.834,3.543 30.649,9.808 43.934,18.227 l 9.517,-9.525 c 4.986,-4.989 13.172,-4.989 18.157,0 l 25.409,25.456 c 5.014,4.988 5.014,13.181 0,18.17 l -9.49,9.496 c 8.413,13.323 14.645,28.148 18.214,43.966 h 13.427 c 7.053,0 12.832,5.782 12.832,12.869 v 35.972 c 0,7.058 -5.779,12.841 -12.832,12.841 h -13.427 c -3.569,15.846 -9.801,30.671 -18.214,43.965 l 9.49,9.525 c 5.014,4.989 5.014,13.153 0,18.17 l -25.409,25.427 c -4.985,5.018 -13.171,5.018 -18.157,0 l -9.517,-9.496 C 30.649,263.482 15.834,269.718 0,273.29 v 13.437 c 0,7.058 -5.778,12.84 -12.832,12.84 h -35.945 c -7.082,0 -12.861,-5.782 -12.861,-12.84 V 273.29 c -15.805,-3.572 -30.62,-9.808 -43.933,-18.227 l -9.49,9.496 c -4.985,5.018 -13.171,5.018 -18.156,0 l -25.437,-25.427 c -4.986,-5.017 -4.986,-13.181 0,-18.17 l 9.517,-9.525 c -8.413,-13.294 -14.673,-28.119 -18.214,-43.965 h -13.426 c -7.053,0 -12.832,-5.783 -12.832,-12.841 v -35.972 c 0,-7.087 5.779,-12.869 12.832,-12.869 h 13.426 c 3.541,-15.818 9.801,-30.643 18.214,-43.966 l -9.517,-9.496 c -4.986,-4.989 -4.986,-13.182 0,-18.17 l 25.437,-25.456 c 4.985,-4.989 13.171,-4.989 18.156,0 l 9.49,9.525 C -92.258,9.808 -77.443,3.543 -61.638,0 v -13.437 c 0,-7.058 5.779,-12.84 12.861,-12.84 h 35.945 c 7.054,0 12.832,5.782 12.832,12.84 z"
             style="fill:none;stroke-width:20.176;stroke-linecap:round;stroke-linejoin:round;stroke-miterlimit:10;stroke-dasharray:none;stroke-opacity:1"
             id="path1836" /></g><g
           id="g1838"
           transform="translate(286.0542,430.7363)"><path
             d="m 0,0 c 32.801,10.063 69.937,2.098 95.883,-23.868 37.419,-37.445 37.419,-98.164 0,-135.582 -37.418,-37.446 -98.064,-37.446 -135.483,0 -25.975,25.966 -33.906,63.128 -23.879,95.954"
             style="fill:none;stroke-width:20.176;stroke-linecap:round;stroke-linejoin:round;stroke-miterlimit:10;stroke-dasharray:none;stroke-opacity:1"
             id="path1840" /></g><g
           id="g1842"
           transform="translate(246.4824,406.897)"><path
             d="M 0,0 -0.028,-0.028"
             style="fill:none;stroke-width:20.176;stroke-linecap:round;stroke-linejoin:round;stroke-miterlimit:10;stroke-dasharray:none;stroke-opacity:1"
             id="path1844" /></g><g
           id="g1846"
           transform="translate(51.0044,164.8164)"><path
             d="m 0,0 h 38.75 c 8.809,0 16.004,-7.2 16.004,-16.016 v -101.736 c 0,-8.815 -7.195,-16.044 -16.004,-16.044 H 0 c -8.81,0 -16.004,7.229 -16.004,16.044 V -16.016 C -16.004,-7.2 -8.81,0 0,0 Z"
             style="fill:none;stroke-width:20.176;stroke-linecap:round;stroke-linejoin:round;stroke-miterlimit:10;stroke-dasharray:none;stroke-opacity:1"
             id="path1848" /></g><g
           id="g1850"
           transform="translate(105.7583,147.1567)"><path
             d="m 0,0 h 20.168 c 7.648,0.34 8.753,0.312 17.109,3.6 38.835,15.336 70.532,17.15 109.368,-19.474 4.843,-4.564 5.948,-5.84 13.709,-5.84 h 52.687 c 14.361,0 26.116,-11.764 26.116,-26.163 0,-14.373 -11.755,-26.136 -26.116,-26.136 h -85.375"
             style="fill:none;stroke-width:20.176;stroke-linecap:round;stroke-linejoin:round;stroke-miterlimit:10;stroke-dasharray:none;stroke-opacity:1"
             id="path1852" /></g><g
           id="g1854"
           transform="translate(314.1816,382.9438)"><path
             d="m 0,0 c 20.933,0 37.9,-16.979 37.9,-37.928 0,-20.948 -16.967,-37.899 -37.9,-37.899 -20.904,0 -37.872,16.951 -37.872,37.899 C -37.872,-16.979 -20.904,0 0,0 Z"
             style="fill:none;stroke-width:20.176;stroke-linecap:round;stroke-linejoin:round;stroke-miterlimit:10;stroke-dasharray:none;stroke-opacity:1"
             id="path1856" /></g><g
           id="g1858"
           transform="translate(256.2832,262.6694)"><path
             d="m 0,0 c 0,23.414 14.078,43.71 34.161,52.81 m 47.503,0 C 101.748,43.71 115.825,23.414 115.825,0"
             style="fill:none;stroke-width:20.176;stroke-linecap:round;stroke-linejoin:round;stroke-miterlimit:10;stroke-dasharray:none;stroke-opacity:1"
             id="path1860" /></g><g
           id="g1862"
           transform="translate(341.7148,111.8081)"><path
             d="m 0,0 84.157,43.257 c 12.35,6.35 27.447,3.6 34.727,-8.22 C 126.192,23.245 122,8.334 110.698,0.284 L -12.889,-87.761 c -33.481,-22.365 -47.616,-13.578 -82.853,-4.025 l -100.275,26.844 c -6.033,1.616 -5.636,1.814 -9.744,1.814 h -30.196"
             style="fill:none;stroke-width:20.176;stroke-linecap:round;stroke-linejoin:round;stroke-miterlimit:10;stroke-dasharray:none;stroke-opacity:1"
             id="path1864" /></g></g></g></g></svg>
