<svg fill="#3179ff" xmlns="http://www.w3.org/2000/svg" viewBox="0 0 512 512" style="enable-background:new 0 0 512 512" xml:space="preserve"><path d="M256 133.12c-11.305 0-20.48 9.175-20.48 20.48s9.175 20.48 20.48 20.48 20.48-9.175 20.48-20.48-9.175-20.48-20.48-20.48z"/><path d="M256 122.88c-16.937 0-30.72 13.783-30.72 30.72s13.783 30.72 30.72 30.72 30.72-13.783 30.72-30.72-13.783-30.72-30.72-30.72zm0 40.96c-5.652 0-10.24-4.587-10.24-10.24 0-5.652 4.588-10.24 10.24-10.24s10.24 4.588 10.24 10.24c0 5.653-4.588 10.24-10.24 10.24zM245.76 215.04h20.48v163.84h-20.48z"/><path d="M266.24 204.8h-20.48c-5.652 0-10.24 4.588-10.24 10.24v163.84c0 5.652 4.588 10.24 10.24 10.24h20.48c5.652 0 10.24-4.588 10.24-10.24V215.04c0-5.652-4.588-10.24-10.24-10.24z"/><path d="m256 348.16-30.72 30.72h61.44z"/><path d="m293.949 371.63-30.72-30.72c-3.994-3.994-10.486-3.994-14.479 0l-30.72 30.72a10.218 10.218 0 0 0-2.212 11.162 10.24 10.24 0 0 0 9.462 6.328h61.44c4.137 0 7.844-2.499 9.441-6.328a10.216 10.216 0 0 0-2.212-11.162zm-43.95-2.99 6.001-6.001 6.001 6.001h-12.002zM225.28 215.04 256 245.76v-30.72z"/><path d="M256 204.8h-30.72a10.24 10.24 0 0 0-9.462 6.328 10.218 10.218 0 0 0 2.212 11.162l30.72 30.72A10.317 10.317 0 0 0 256 256c1.311 0 2.642-.246 3.912-.778a10.24 10.24 0 0 0 6.328-9.462v-30.72c0-5.652-4.588-10.24-10.24-10.24z"/><path d="M256 0C114.831 0 0 114.831 0 256s114.831 256 256 256 256-114.831 256-256S397.169 0 256 0zm0 491.52C126.136 491.52 20.48 385.864 20.48 256S126.136 20.48 256 20.48 491.52 126.136 491.52 256 385.864 491.52 256 491.52z"/></svg>