<svg height="512" viewBox="0 0 128 128" width="512" xmlns="http://www.w3.org/2000/svg"><g><path d="m64 56.756a13.017 13.017 0 1 0 -13.017-13.017 13.031 13.031 0 0 0 13.017 13.017zm0-22.533a9.517 9.517 0 1 1 -9.517 9.516 9.528 9.528 0 0 1 9.517-9.516z"/><path d="m110.134 99.324-7.008-19.675-2.906-8.159a8.064 8.064 0 0 0 -7.581-5.347h-10.716c4.717-8.512 7.114-16.3 7.114-23.172a25.037 25.037 0 0 0 -50.074 0c0 7.05 2.316 14.835 6.877 23.172h-10.477a8.064 8.064 0 0 0 -7.581 5.347l-9.916 27.833a8.025 8.025 0 0 0 6.109 10.6c.012 0 .022.01.034.012.047.008.088.011.134.018.17.029.34.055.512.072a7.228 7.228 0 0 0 .791.048h77.108a8.046 8.046 0 0 0 7.58-10.747zm-46.134-77.895a21.561 21.561 0 0 1 21.537 21.537c0 6.939-2.738 15.021-8.14 24.022a116.587 116.587 0 0 1 -13.421 17.849 106.037 106.037 0 0 1 -13.624-17.845c-5.235-8.79-7.889-16.874-7.889-24.026a21.561 21.561 0 0 1 21.537-21.537zm-28.637 48.209h12.507a107.246 107.246 0 0 0 14.91 18.983 1.751 1.751 0 0 0 2.467-.027 117.538 117.538 0 0 0 14.628-18.956h12.762a4.556 4.556 0 0 1 4.284 3.021l2.326 6.531-20.635 7.479-24.622 8.924-23.007-22.665.1-.269a4.556 4.556 0 0 1 4.28-3.021zm-13.633 35.007a4.494 4.494 0 0 1 -.567-4.147l8.525-23.932 20.655 20.349-26.15 9.478a4.49 4.49 0 0 1 -2.463-1.748zm56.639-14.164 8.428 16.09h-52.823zm27.9 14.164a4.492 4.492 0 0 1 -3.715 1.926h-11.807l-9.058-17.293 18.733-6.79 6.415 18.011a4.49 4.49 0 0 1 -.568 4.146z"/></g></svg>