<svg stroke-width="0.2" viewBox="0 0 36 34" fill="none" xmlns="http://www.w3.org/2000/svg">
	<path d="M2.49673 33.3362L4.6347 24.7838C2.28636 22.1556 1 18.8936 1 15.5391C1 11.5228 2.7787 7.75449 6.00822 4.92859C9.19987 2.13564 13.4351 0.597656 17.9336 0.597656C22.4381 0.597656 26.6953 2.13434 29.9212 4.92496C33.1964 7.75812 35 11.5277 35 15.5391C35 19.5504 33.1964 23.32 29.9212 26.1532C26.6953 28.9438 22.4381 30.4805 17.9336 30.4805C15.5017 30.4805 13.1438 30.025 10.9176 29.1256L2.49673 33.3362ZM17.9336 2.58984C9.69481 2.58984 2.99219 8.39883 2.99219 15.5391C2.99219 18.5525 4.22018 21.4907 6.45024 23.8123L6.83182 24.2095L5.47983 29.6169L10.8504 26.9319L11.2766 27.1163C13.3778 28.0268 15.6177 28.4883 17.9336 28.4883C26.2455 28.4883 33.0078 22.6793 33.0078 15.5391C33.0078 8.39883 26.2455 2.58984 17.9336 2.58984Z"/>
	<path d="M13.9326 15.3066C13.9326 16.2235 13.1893 16.9668 12.2725 16.9668C11.3556 16.9668 10.6123 16.2235 10.6123 15.3066C10.6123 14.3898 11.3556 13.6465 12.2725 13.6465C13.1893 13.6465 13.9326 14.3898 13.9326 15.3066Z"/>
	<path d="M19.6602 15.3066C19.6602 16.2235 18.9169 16.9668 18 16.9668C17.0831 16.9668 16.3398 16.2235 16.3398 15.3066C16.3398 14.3898 17.0831 13.6465 18 13.6465C18.9169 13.6465 19.6602 14.3898 19.6602 15.3066Z"/>
	<path d="M25.3877 15.3066C25.3877 16.2235 24.6444 16.9668 23.7275 16.9668C22.8107 16.9668 22.0674 16.2235 22.0674 15.3066C22.0674 14.3898 22.8107 13.6465 23.7275 13.6465C24.6444 13.6465 25.3877 14.3898 25.3877 15.3066Z"/>
</svg>
