<svg height="512" viewBox="0 0 24 24" width="512" xmlns="http://www.w3.org/2000/svg"><g id="Layer_2" data-name="Layer 2"><path d="m12 16.75a5.757 5.757 0 0 1 -5.75-5.75v-4a5.75 5.75 0 0 1 11.5 0v4a5.757 5.757 0 0 1 -5.75 5.75zm0-14a4.255 4.255 0 0 0 -4.25 4.25v4a4.25 4.25 0 0 0 8.5 0v-4a4.255 4.255 0 0 0 -4.25-4.25z"/><path d="m12 22.75a.75.75 0 0 1 -.75-.75v-3a.75.75 0 0 1 1.5 0v3a.75.75 0 0 1 -.75.75z"/><path d="m12 19.75a8.728 8.728 0 0 1 -6.188-2.558 8.9 8.9 0 0 1 -2.288-4 .75.75 0 1 1 1.452-.38 7.384 7.384 0 0 0 1.9 3.322 7.258 7.258 0 0 0 12.15-3.319.751.751 0 0 1 1.454.375 8.752 8.752 0 0 1 -8.48 6.56z"/></g></svg>