<svg viewBox="0 0 512 448" xmlns="http://www.w3.org/2000/svg">
<g clip-path="url(#clip0_120_23)">
<path d="M181.408 298.667C159.146 298.697 137.162 293.729 117.077 284.128C114.616 282.87 111.783 282.54 109.099 283.2L71.68 293.589C68.1498 294.57 64.4266 294.624 60.8692 293.748C57.3118 292.871 54.0401 291.093 51.3692 288.585C48.6983 286.077 46.7184 282.924 45.6201 279.429C44.5218 275.933 44.3423 272.214 45.0987 268.629L53.0133 231.008C53.5099 228.263 52.9823 225.432 51.5307 223.051C35.7182 195.334 29.2444 163.264 33.0667 131.584C37.1465 98.6032 52.053 67.9078 75.4502 44.308C98.8473 20.7081 129.413 5.53749 162.357 1.1733C201.584 -4.3432 241.395 5.94894 273.033 29.7856C304.672 53.6222 325.545 89.0507 331.061 128.277C336.578 167.504 326.286 207.315 302.449 238.953C278.612 270.592 243.184 291.465 203.957 296.981C196.493 298.097 188.956 298.66 181.408 298.667V298.667ZM111.723 261.515C116.767 261.539 121.741 262.691 126.283 264.885C144.247 273.451 163.962 277.709 183.861 277.322C203.759 276.935 223.293 271.913 240.911 262.655C258.529 253.398 273.746 240.159 285.352 223.992C296.959 207.824 304.635 189.172 307.772 169.519C310.908 149.865 309.419 129.751 303.421 110.774C297.423 91.7967 287.083 74.4795 273.222 60.198C259.361 45.9164 242.36 35.0638 223.57 28.5024C204.781 21.9411 184.72 19.8516 164.981 22.4C144.145 25.0655 124.285 32.822 107.158 44.9842C90.0302 57.1464 76.1619 73.3399 66.7781 92.1339C57.3942 110.928 52.7838 131.744 53.3541 152.743C53.9244 173.741 59.6579 194.276 70.048 212.533C74.075 219.448 75.4332 227.598 73.8667 235.445L65.9733 273.067L103.381 262.677C106.095 261.908 108.902 261.513 111.723 261.504V261.515Z"/>
<path d="M341.333 448C334.296 447.998 327.268 447.471 320.309 446.421C290.555 441.946 263.076 427.879 242.047 406.358C221.019 384.837 207.593 357.039 203.808 327.189C201.905 312.021 202.456 296.646 205.44 281.653C205.683 280.252 206.205 278.913 206.973 277.716C207.742 276.518 208.742 275.487 209.915 274.682C211.088 273.878 212.411 273.316 213.804 273.029C215.198 272.743 216.635 272.739 218.03 273.016C219.425 273.294 220.751 273.848 221.929 274.645C223.107 275.443 224.114 276.468 224.89 277.66C225.666 278.853 226.195 280.188 226.447 281.589C226.699 282.989 226.669 284.425 226.357 285.813C223.821 298.566 223.356 311.644 224.981 324.544C227.372 342.862 234.056 360.356 244.488 375.602C254.921 390.847 268.808 403.412 285.017 412.274C301.226 421.135 319.3 426.043 337.765 426.596C356.23 427.148 374.564 423.332 391.275 415.456C398.361 412.04 406.439 411.283 414.037 413.323L446.741 422.4L439.829 389.579C438.273 381.745 439.619 373.613 443.616 366.699C455.784 345.173 460.783 320.333 457.888 295.776C454.545 268.536 441.834 243.306 421.933 224.408C402.031 205.51 376.177 194.121 348.8 192.192C338.415 191.517 327.987 192.234 317.792 194.325C316.406 194.643 314.97 194.681 313.569 194.436C312.167 194.191 310.83 193.668 309.634 192.898C308.438 192.128 307.408 191.127 306.604 189.953C305.801 188.779 305.241 187.456 304.956 186.063C304.671 184.669 304.669 183.233 304.947 181.838C305.226 180.443 305.781 179.118 306.58 177.941C307.378 176.764 308.404 175.758 309.597 174.984C310.79 174.209 312.125 173.68 313.525 173.429C325.571 170.951 337.893 170.094 350.165 170.88C382.52 173.17 413.073 186.639 436.589 208.978C460.106 231.318 475.124 261.138 479.072 293.333C482.503 322.356 476.592 351.718 462.197 377.152C460.756 379.561 460.226 382.407 460.704 385.173L467.627 417.995C468.382 421.58 468.201 425.299 467.101 428.794C466.001 432.289 464.02 435.442 461.348 437.949C458.676 440.456 455.403 442.232 451.846 443.107C448.288 443.982 444.565 443.926 441.035 442.944L408.32 433.856C405.645 433.216 402.829 433.545 400.373 434.784C381.912 443.5 361.748 448.013 341.333 448V448Z"/>
<path d="M394.667 373.333C392.675 373.344 390.721 372.798 389.024 371.755C387.328 370.713 385.957 369.216 385.067 367.435L341.333 279.851L297.6 367.435C296.335 369.967 294.117 371.893 291.432 372.789C288.748 373.685 285.817 373.478 283.285 372.213C280.753 370.949 278.828 368.73 277.931 366.046C277.035 363.361 277.242 360.431 278.507 357.899L331.84 251.232C332.826 249.579 334.224 248.21 335.897 247.26C337.57 246.309 339.462 245.809 341.387 245.809C343.311 245.809 345.203 246.309 346.876 247.26C348.55 248.21 349.948 249.579 350.933 251.232L404.267 357.899C405.082 359.529 405.465 361.342 405.38 363.163C405.295 364.984 404.745 366.753 403.783 368.301C402.82 369.848 401.476 371.124 399.881 372.005C398.285 372.886 396.49 373.343 394.667 373.333V373.333Z"/>
<path d="M303.776 342.955C300.947 342.982 298.223 341.883 296.204 339.902C294.184 337.921 293.035 335.218 293.008 332.389C292.981 329.56 294.079 326.837 296.061 324.817C298.042 322.798 300.744 321.648 303.573 321.621L378.699 320.235H378.891C381.72 320.208 384.443 321.306 386.463 323.287C388.482 325.269 389.632 327.971 389.659 330.8C389.686 333.629 388.587 336.353 386.606 338.372C384.625 340.391 381.922 341.541 379.093 341.568L303.968 342.955H303.776Z"/>
<path d="M181.333 213.333C168.675 213.333 156.302 209.58 145.777 202.547C135.252 195.515 127.049 185.519 122.205 173.825C117.361 162.131 116.094 149.262 118.563 136.848C121.033 124.433 127.128 113.029 136.078 104.078C145.029 95.1279 156.433 89.0325 168.848 86.563C181.262 84.0936 194.131 85.361 205.825 90.205C217.52 95.049 227.515 103.252 234.547 113.777C241.58 124.302 245.333 136.675 245.333 149.333C245.316 166.302 238.568 182.571 226.569 194.569C214.571 206.568 198.302 213.316 181.333 213.333ZM181.333 106.667C172.895 106.667 164.646 109.169 157.629 113.857C150.613 118.546 145.144 125.209 141.914 133.005C138.685 140.802 137.84 149.381 139.486 157.657C141.133 165.934 145.196 173.536 151.163 179.503C157.13 185.47 164.733 189.534 173.009 191.18C181.286 192.826 189.865 191.981 197.661 188.752C205.457 185.523 212.121 180.054 216.809 173.038C221.498 166.021 224 157.772 224 149.333C224 138.017 219.505 127.165 211.503 119.163C203.502 111.162 192.649 106.667 181.333 106.667V106.667Z"/>
<path d="M234.667 224C231.838 223.999 229.125 222.875 227.125 220.875L184.459 178.208C182.516 176.196 181.441 173.502 181.465 170.705C181.489 167.908 182.611 165.233 184.589 163.255C186.566 161.278 189.242 160.156 192.038 160.132C194.835 160.107 197.53 161.182 199.541 163.125L242.208 205.792C243.699 207.284 244.715 209.184 245.126 211.253C245.538 213.322 245.326 215.466 244.519 217.415C243.712 219.364 242.345 221.03 240.592 222.202C238.838 223.374 236.776 224 234.667 224Z"/>
</g>
<defs>
<clipPath id="clip0_120_23">
<rect width="512" height="448" fill="#fff"/>
</clipPath>
</defs>
</svg>
