<svg width="36" height="34" viewBox="0 0 36 34" fill="none" xmlns="http://www.w3.org/2000/svg">
	<path d="M2.49673 33.3362L4.6347 24.7838C2.28636 22.1556 1 18.8936 1 15.5391C1 11.5228 2.7787 7.75449 6.00822 4.92859C9.19987 2.13564 13.4351 0.597656 17.9336 0.597656C22.4381 0.597656 26.6953 2.13434 29.9212 4.92496C33.1964 7.75812 35 11.5277 35 15.5391C35 19.5504 33.1964 23.32 29.9212 26.1532C26.6953 28.9438 22.4381 30.4805 17.9336 30.4805C15.5017 30.4805 13.1438 30.025 10.9176 29.1256L2.49673 33.3362ZM17.9336 2.58984C9.69481 2.58984 2.99219 8.39883 2.99219 15.5391C2.99219 18.5525 4.22018 21.4907 6.45024 23.8123L6.83182 24.2095L5.47983 29.6169L10.8504 26.9319L11.2766 27.1163C13.3778 28.0268 15.6177 28.4883 17.9336 28.4883C26.2455 28.4883 33.0078 22.6793 33.0078 15.5391C33.0078 8.39883 26.2455 2.58984 17.9336 2.58984Z" fill="black"/>
	<path fill-rule="evenodd" clip-rule="evenodd" d="M26.6694 8.23535C27.0758 8.58476 27.1127 9.19348 26.7512 9.5877L16.5737 20.6855C16.2103 21.0818 15.5863 21.107 15.191 20.7415L9.30162 15.2946C8.93434 14.9549 8.89918 14.3889 9.2143 14.0019C9.562 13.5749 10.2095 13.5161 10.6233 13.8818L15.1927 17.9196C15.5898 18.2705 16.2011 18.2391 16.5589 17.8495L25.313 8.31402C25.6672 7.92814 26.2713 7.89317 26.6694 8.23535Z" fill="black"/>
</svg>
