<svg fill="none" height="512" viewBox="0 0 25 24" width="512" xmlns="http://www.w3.org/2000/svg"><g clip-rule="evenodd" fill="#000" fill-rule="evenodd"><path d="m2.53516 12c0-5.52284 4.47715-10 10.00004-10 5.5228 0 10 4.47716 10 10 0 5.5229-4.4772 10-10 10-5.52289 0-10.00004-4.4771-10.00004-10zm10.00004-8c-4.41832 0-8.00004 3.58172-8.00004 8 0 4.4183 3.58172 8 8.00004 8 4.4183 0 8-3.5817 8-8 0-4.41828-3.5817-8-8-8z"/><path d="m8.53516 10c0-.55228.44771-1 1-1h.01c.55224 0 1.00004.44772 1.00004 1 0 .5523-.4478 1-1.00004 1h-.01c-.55229 0-1-.4477-1-1z"/><path d="m14.5352 10c0-.55228.4477-1 1-1h.01c.5522 0 1 .44772 1 1 0 .5523-.4478 1-1 1h-.01c-.5523 0-1-.4477-1-1z"/><path d="m9.3353 14.2857c.39449-.3865 1.0276-.38 1.4141.0144.2328.2376.5106.4263.8173.5552.3066.1288.6359.1952.9685.1952.3325 0 .6618-.0664.9685-.1952.3066-.1289.5844-.3176.8172-.5552.3865-.3945 1.0197-.4009 1.4141-.0144.3945.3866.401 1.0197.0144 1.4142-.419.4276-.919.7673-1.4709.9992-.552.232-1.1447.3514-1.7433.3514-.5987 0-1.1914-.1194-1.7433-.3514-.552-.2319-1.05204-.5716-1.47103-.9992-.38652-.3945-.38006-1.0277.01443-1.4142z"/></g></svg>