<svg width="36" height="34" viewBox="0 0 36 34" fill="none" xmlns="http://www.w3.org/2000/svg">
<path fill-rule="evenodd" clip-rule="evenodd" d="M20.6501 0.786722C19.7593 0.661476 18.8516 0.597656 17.9336 0.597656C13.4351 0.597656 9.19987 2.13564 6.00822 4.92859C2.7787 7.75449 1 11.5228 1 15.5391C1 18.8936 2.28636 22.1556 4.6347 24.7838L2.49673 33.3362L10.9176 29.1256C13.1438 30.025 15.5017 30.4805 17.9336 30.4805C22.4381 30.4805 26.6953 28.9438 29.9212 26.1532C33.1964 23.32 35 19.5504 35 15.5391C35 14.5091 34.8811 13.495 34.6489 12.5087L32.9077 14.0424C32.9738 14.5336 33.0078 15.033 33.0078 15.5391C33.0078 22.6793 26.2455 28.4883 17.9336 28.4883C15.6177 28.4883 13.3778 28.0268 11.2766 27.1163L10.8504 26.9319L5.47983 29.6169L6.83182 24.2095L6.45024 23.8123C4.22018 21.4907 2.99219 18.5525 2.99219 15.5391C2.99219 8.39883 9.69481 2.58984 17.9336 2.58984C18.3814 2.58984 18.8248 2.6067 19.2628 2.63973L20.6501 0.786722Z" fill="black"/>
<circle cx="28" cy="6" r="4.5" fill="#fff" stroke="#fff"/>
</svg>
