<svg id="Layer_2" height="512" viewBox="0 0 28 28" width="512" xmlns="http://www.w3.org/2000/svg" data-name="Layer 2"><path d="m16.673 2.329a2.525 2.525 0 0 0 -2.581.049l-7.373 4.508h-2.757a2.984 2.984 0 0 0 -2.962 2.999v8.23a2.984 2.984 0 0 0 2.962 3h2.757l7.373 4.508a2.523 2.523 0 0 0 2.581.049 2.611 2.611 0 0 0 1.327-2.28v-18.784a2.611 2.611 0 0 0 -1.327-2.279zm-.673 21.063a.593.593 0 0 1 -.3.534.537.537 0 0 1 -.56-.01l-7.619-4.655a1 1 0 0 0 -.521-.147h-3.038a.982.982 0 0 1 -.962-1v-8.229a.982.982 0 0 1 .962-1h3.038a1 1 0 0 0 .521-.147l7.614-4.655a.537.537 0 0 1 .56-.01.593.593 0 0 1 .3.534z"/><path d="m20.4 10.2a1 1 0 0 0 -.2 1.4 4 4 0 0 1 0 4.8 1 1 0 0 0 1.6 1.2 6 6 0 0 0 0-7.2 1 1 0 0 0 -1.4-.2z"/><path d="m24.778 7.714a1 1 0 0 0 -1.555 1.258 8 8 0 0 1 0 10.056 1 1 0 0 0 1.555 1.258 10 10 0 0 0 0-12.572z"/></svg>